<?xml version="1.0" encoding="utf-8"?>
<!-- Generator: Adobe Illustrator 16.0.0, SVG Export Plug-In . SVG Version: 6.00 Build 0)  -->
<!DOCTYPE svg PUBLIC "-//W3C//DTD SVG 1.1//EN" "http://www.w3.org/Graphics/SVG/1.1/DTD/svg11.dtd">
<svg version="1.1" id="Layer_1" xmlns="http://www.w3.org/2000/svg" xmlns:xlink="http://www.w3.org/1999/xlink" x="0px" y="0px"
	 width="360px" height="360px" viewBox="0 0 360 360" enable-background="new 0 0 360 360" xml:space="preserve">
<rect fill="#1A4425" width="359.993" height="360.002"/>
<g>
	<g>
		<path fill="#FFFFFF" d="M38.549,332.247v-36.396h7.261v36.396H38.549z"/>
		<path fill="#FFFFFF" d="M66.4,332.247l-7.717-17.784v17.784h-7.261v-36.396h6.34l7.568,17.788v-17.788h7.252v36.396H66.4z"/>
		<path fill="#FFFFFF" d="M96.452,328.722c-1.64,1.886-3.894,3.525-7.98,3.525H78.204v-36.396h10.269c4.086,0,6.34,1.64,7.98,3.529
			c2.912,3.372,2.701,9.909,2.701,14.662C99.153,318.8,99.364,325.342,96.452,328.722z M91.033,303.976
			c-0.456-0.921-1.386-1.579-2.701-1.579h-2.876v23.3h2.876c1.315,0,2.245-0.657,2.701-1.578c0.859-1.684,0.859-6.086,0.859-10.111
			C91.893,309.956,91.893,305.663,91.033,303.976z"/>
		<path fill="#FFFFFF" d="M121.278,329.634c-1.938,1.991-4.499,3.017-7.559,3.017c-3.069,0-5.621-1.025-7.559-3.017
			c-1.745-1.78-2.709-4.235-2.709-7.155v-26.628h7.252v26.987c0,2.351,1.377,3.271,3.017,3.271c1.631,0,3.017-0.92,3.017-3.271
			v-26.987h7.252v26.628C123.988,325.398,123.014,327.854,121.278,329.634z"/>
		<path fill="#FFFFFF" d="M146.375,329.945c-1.64,1.583-4.402,2.705-7.927,2.705c-3.578,0-6.235-1.025-7.866-2.657
			c-1.789-1.788-2.403-4.341-2.403-8.076h7.252c0,1.482,0.105,2.557,0.771,3.323c0.403,0.456,1.123,0.868,2.245,0.868
			c1.131,0,1.841-0.307,2.306-0.92c0.508-0.614,0.71-1.583,0.71-3.065c0-3.468-0.562-4.091-3.166-5.16l-4.595-1.895
			c-3.692-1.53-5.218-3.473-5.218-9.146c0-3.376,1.07-6.182,3.271-8.076c1.736-1.482,3.937-2.298,6.691-2.298
			c3.218,0,5.568,0.815,7.155,2.298c2,1.842,2.815,4.753,2.815,8.436h-7.261c0-1.28,0-2.455-0.605-3.271
			c-0.421-0.562-1.026-0.921-2.104-0.921c-1.018,0-1.684,0.412-2.087,0.965c-0.465,0.613-0.614,1.381-0.614,2.608
			c0,2.302,0.403,2.969,2.499,3.837l4.551,1.837c4.595,1.898,5.919,3.938,5.919,10.527
			C148.717,325.548,148.261,328.104,146.375,329.945z"/>
		<path fill="#FFFFFF" d="M164.87,302.396v29.851h-7.261v-29.851h-6.13v-6.546H171v6.546H164.87z"/>
		<path fill="#FFFFFF" d="M188.941,332.247l-4.455-14.162h-2.394v14.162h-7.252v-36.396h10.365c7.928,0,10.12,4.144,10.12,11.089
			c0,3.885-0.605,7.366-4.14,9.559l5.323,15.749H188.941z M185.161,302.396h-3.068v9.146h3.068c2.763,0,2.912-2.504,2.912-4.604
			C188.073,304.853,187.924,302.396,185.161,302.396z"/>
		<path fill="#FFFFFF" d="M200.587,332.247v-36.396h7.252v36.396H200.587z"/>
		<path fill="#FFFFFF" d="M229.262,332.247l-1.175-5.678h-8.393l-1.175,5.678h-7.559l9.348-36.396h7.155l9.357,36.396H229.262z
			 M223.887,306.536l-2.807,13.491h5.621L223.887,306.536z"/>
		<path fill="#FFFFFF" d="M239.934,332.247v-36.396h7.261v29.846h9.506v6.551H239.934z"/>
		<path fill="#FFFFFF" d="M285.218,332.247l-1.184-5.678h-8.375l-1.175,5.678h-7.576l9.365-36.396h7.146l9.357,36.396H285.218z
			 M279.843,306.536l-2.807,13.491h5.621L279.843,306.536z"/>
		<path fill="#FFFFFF" d="M295.891,332.247v-36.396h7.261v36.396H295.891z"/>
		<path fill="#FFFFFF" d="M322.873,332.247l-4.455-14.162h-2.394v14.162h-7.252v-36.396h10.374c7.918,0,10.11,4.144,10.11,11.089
			c0,3.885-0.614,7.366-4.139,9.559l5.313,15.749H322.873z M319.094,302.396h-3.069v9.146h3.069c2.753,0,2.902-2.504,2.902-4.604
			C321.996,304.853,321.847,302.396,319.094,302.396z"/>
	</g>
	<g>
		<g>
			<polygon fill="#FFFFFF" points="330.414,237.373 262.874,237.373 246.765,287.734 330.414,287.734 			"/>
		</g>
		<polygon fill="#FFFFFF" points="201.516,40.566 201.086,40.566 174.796,40.566 146.454,126.465 146.454,126.636 146.445,126.649 
			146.445,126.465 118.104,40.566 91.384,40.566 91.384,40.566 38.637,40.566 38.637,287.734 98.557,287.734 98.557,131.625 
			130.626,234.155 161.423,234.155 194.343,131.205 194.343,287.734 238.153,287.734 254.245,237.373 254.245,40.566 		"/>
	</g>
</g>
</svg>
